<?xml version="1.0" encoding="utf-8"?>
<!-- Generator: Adobe Illustrator 15.0.0, SVG Export Plug-In . SVG Version: 6.00 Build 0)  -->
<!DOCTYPE svg PUBLIC "-//W3C//DTD SVG 1.1//EN" "http://www.w3.org/Graphics/SVG/1.1/DTD/svg11.dtd">
<svg version="1.1" id="Capa_1" xmlns="http://www.w3.org/2000/svg" xmlns:xlink="http://www.w3.org/1999/xlink" x="0px" y="0px"
	 width="176px" height="208px" viewBox="0 0 176 208" enable-background="new 0 0 176 208" xml:space="preserve">
<g>
	<g>
		<path fill="#51859E" d="M88,192c48.521,0,88-39.479,88-88c0-48.522-39.479-88-88-88C39.478,16,0,55.478,0,104
			C0,152.521,39.478,192,88,192z M88,24.793c43.677,0,79.207,35.53,79.207,79.207S131.677,183.207,88,183.207
			S8.793,147.677,8.793,104S44.323,24.793,88,24.793z"/>
		<path fill="#51859E" d="M49.778,108.414h65.82l-17.227,17.227c-1.723,1.723-1.723,4.486,0,6.209
			c0.861,0.861,1.974,1.293,3.122,1.293s2.262-0.432,3.123-1.293l24.727-24.727c1.723-1.724,1.723-4.487,0-6.209l-24.727-24.728
			c-1.723-1.723-4.486-1.723-6.209,0s-1.723,4.486,0,6.208l17.227,17.227H49.778c-2.44,0-4.415,1.974-4.415,4.415
			C45.364,106.477,47.338,108.414,49.778,108.414z"/>
	</g>
</g>
</svg>
